<svg
  width="24"
  height="24"
  viewBox="0 0 24 24"
  fill="none"
  xmlns="http://www.w3.org/2000/svg"
>
  <path
    d="M9.57141 6.35369C8.71007 6.35369 7.99945 5.64307 7.99945 4.78174C7.99945 3.89885 8.71007 3.20978 9.57141 3.20978C10.4543 3.20978 11.1434 3.89885 11.1434 4.78174C11.1434 5.64307 10.4543 6.35369 9.57141 6.35369ZM13.5767 6.35369C12.6938 6.35369 12.0047 5.64307 12.0047 4.78174C12.0047 3.89885 12.6938 3.20978 13.5767 3.20978C14.438 3.20978 15.1486 3.89885 15.1486 4.78174C15.1486 5.64307 14.438 6.35369 13.5767 6.35369ZM11.574 19.8122C7.95638 19.8122 5.37235 17.2282 5.37235 13.5675C5.37235 9.90674 7.95638 7.32269 11.574 7.32269C15.2132 7.32269 17.7973 9.90674 17.7973 13.5675C17.7973 17.2282 15.2132 19.8122 11.574 19.8122ZM11.574 16.13C12.8661 16.13 13.8351 15.0533 13.8351 13.5675C13.8351 12.0816 12.8661 11.005 11.574 11.005C10.3036 11.005 9.33453 12.0816 9.33453 13.5675C9.33453 15.0533 10.3036 16.13 11.574 16.13Z"
    fill="currentColor"
  />
</svg>
